<?xml version="1.0" encoding="utf-8"?>
<!-- Generator: Adobe Illustrator 25.4.1, SVG Export Plug-In . SVG Version: 6.00 Build 0)  -->
<svg version="1.1" id="Capa_1" xmlns:serif="http://www.serif.com/"
	 xmlns="http://www.w3.org/2000/svg" xmlns:xlink="http://www.w3.org/1999/xlink" x="0px" y="0px" viewBox="0 0 456 456"
	 style="enable-background:new 0 0 456 456;" xml:space="preserve">
<style type="text/css">
	.st0{fill:#FFFFFF;}
</style>
<g>
	<g>
		<path class="st0" d="M26.8,294.6V169.8h17.6v124.8H26.8z M30.4,240.8v-16.7h73.9v16.7H30.4z M90,294.6V169.8h17.6v124.8H90z"/>
		<path class="st0" d="M172.3,296.4c-26.7,0-40.1-13.9-40.1-41.8v-84.7h17.6v84.7c0,8.3,1.8,14.6,5.5,18.8c3.7,4.2,9.4,6.3,17.4,6.3
			c15.2,0,22.9-8.4,22.9-25.1v-84.7h17.6v84.7c0,13.9-3.5,24.4-10.4,31.4C195.8,292.9,185.7,296.4,172.3,296.4z"/>
		<path class="st0" d="M239.4,294.6V169.8H257v124.8H239.4z M239.4,294.6v-16.7h82.6v16.7H239.4z"/>
		<path class="st0" d="M344,294.6V169.8h17.6v124.8H344z M355.1,254.9l1.6-17.4c9,0,16.8-1.9,23.4-5.7c6.6-3.8,12-8.9,16.2-15.3
			c4.2-6.4,7.4-13.7,9.5-21.7c2.1-8.1,3.1-16.4,3.1-25H427c0,11.1-1.6,21.7-4.8,31.9c-3.2,10.2-7.9,19.3-14.1,27.3
			s-13.7,14.3-22.6,18.9C376.6,252.6,366.5,254.9,355.1,254.9z M411.7,294.6l-31.6-60.8l15.8-9l37.1,69.8H411.7z"/>
	</g>
</g>
</svg>
